<svg xmlns="http://www.w3.org/2000/svg" width="19" height="48" viewBox="0 0 19 48" fill="none">
  <g clip-path="url(#clip0_3_827)">
    <path d="M17.6675 15.0925C17.3675 14.9375 16.8575 15.5775 16.4175 15.9775C14.4875 17.7925 11.7575 18.6325 10.1575 20.8525C10.7625 19.5875 11.3975 18.3975 11.8725 16.9925C12.2675 15.9175 12.3225 15.0625 13.3525 14.2125C14.1275 13.4825 15.1625 13.3575 16.0675 12.8675C18.9775 11.4125 18.5925 8.17247 16.8525 9.84247C17.1975 9.20747 17.1125 8.25747 16.6125 7.99747C16.1125 7.73747 15.5375 8.14247 15.1925 7.75747C14.8475 7.37247 14.4625 7.17247 14.0925 7.21247C13.7225 7.25247 13.3175 7.66747 13.3275 8.03747C13.3375 8.41747 12.6725 8.48747 12.4475 8.79747C12.3425 8.37747 12.3525 8.20247 11.9725 8.19247C11.5925 8.18247 11.3275 8.89747 10.7225 8.89747C10.1175 8.90747 9.51749 9.08747 9.91249 10.0875C9.06749 9.45747 8.32749 10.3875 8.70749 11.2325C8.85249 11.7225 9.19749 12.1025 9.50249 12.4475C10.4775 13.4475 11.9325 13.5775 12.0375 15.2575C11.7375 17.7225 10.2025 19.7125 9.27249 21.9925C8.60749 19.9775 7.92249 18.6575 7.47249 15.8775C7.02249 13.0975 7.73749 8.61747 8.84249 7.50247C9.44749 6.89747 9.83249 6.84747 11.5125 5.69247C13.1925 4.53747 13.7175 2.23747 13.3025 1.99747C12.8875 1.75747 12.3625 2.53247 12.0125 2.83247C11.9075 2.87747 11.7525 2.74747 11.6425 2.72247C11.8825 1.92247 12.2375 0.0874731 10.9025 0.267473C10.6025 0.342473 10.3425 0.602473 10.0225 0.562473C9.13749 0.512473 8.23249 0.0174731 7.80749 0.982473C7.62749 0.657473 7.09249 0.397473 6.63749 0.507473C6.28249 0.602473 6.22249 0.912473 5.99249 1.21247C5.54249 1.07247 5.13749 1.38247 5.14749 1.88247C4.00249 1.87247 4.14749 3.15747 4.91249 4.12247C5.67749 5.08747 7.08249 6.11247 7.41249 8.07747C7.74249 10.0425 6.58749 12.3075 7.23249 16.3475C6.72249 15.3225 6.28249 14.6775 5.82249 13.2975C5.36249 11.9175 4.91749 10.0875 4.24749 9.29247C3.57749 8.49747 3.27249 8.01747 3.06749 8.16247C2.86249 8.30747 3.09249 8.90247 3.14749 9.11747C3.33749 9.94247 3.39749 10.8825 3.59749 11.3325C3.85749 11.9025 4.62249 12.6825 4.63249 13.7525C4.64249 14.2375 4.74249 15.0425 5.27749 15.7925C5.93249 16.7075 7.06749 17.7125 7.37749 18.1725C8.14249 19.5425 8.59249 20.9875 9.09249 22.4725C8.39249 24.1275 8.11749 26.0375 8.42249 27.7175C7.34749 25.2725 3.98749 23.0675 1.95249 20.6625C1.67749 20.3425 1.15249 19.5525 0.907491 19.6725C0.662491 19.7925 0.977491 20.4725 1.12249 20.8625C1.26249 21.2525 1.94249 22.9725 2.57749 23.9025C2.99249 24.5075 3.53249 25.0675 4.29249 25.5475C5.35249 26.3225 5.36749 27.7875 6.52249 28.4075C7.96749 29.2525 9.03749 29.9725 9.38249 31.7325C8.48749 34.5325 6.60249 36.3775 6.30749 36.5925C6.02249 36.8075 5.53249 37.1075 5.79749 37.2825C6.06249 37.4575 8.54749 35.3875 9.53749 32.2325C10.4675 34.7325 11.6125 37.9625 11.8375 40.2625C12.0625 42.5625 11.9825 44.7525 10.9825 46.7925C10.7825 47.1375 10.5275 47.7325 10.7925 47.7325C11.0575 47.7325 11.1225 47.3725 11.2925 47.0025C11.9275 45.6925 12.6025 42.9275 12.1775 40.1825C11.6375 36.6575 10.6375 34.5675 9.72249 31.6975C10.6275 28.7925 10.3775 25.7375 9.55749 22.9275C10.0425 22.2725 10.6425 21.8425 11.3125 21.5325C11.7875 21.3175 12.2075 21.3575 12.8025 21.0175C13.3975 20.6725 13.5425 20.1975 13.9725 19.9425C14.4575 19.6475 14.8525 19.5375 15.6075 19.2125C16.3675 18.8875 17.0275 17.0925 17.3025 16.3675C17.5775 15.6425 17.9825 15.2475 17.6725 15.0925H17.6675ZM17.4525 15.3325C17.0125 16.0225 16.9275 16.6075 16.6175 17.2475C16.2975 17.8775 15.9275 18.6625 15.4725 18.9275C15.0175 19.1925 13.8175 19.5925 13.4375 19.9025C13.0575 20.2225 12.8025 20.7025 12.4575 20.8525C12.1125 21.0025 11.8125 21.0925 11.2675 21.2125C10.7275 21.3325 10.0625 21.9025 9.54249 22.4625C10.5325 19.7725 14.4275 17.8975 15.5225 17.1325C16.6175 16.3675 16.9625 15.8125 17.4525 15.3425V15.3325ZM9.53749 31.0975C9.04749 28.5925 7.95249 26.1275 9.25249 23.1275C9.86249 25.0725 10.2625 28.4775 9.53749 31.0975ZM8.82249 29.8625C8.15749 28.7525 6.73749 28.5125 5.97249 27.4825C5.53249 26.9425 5.39749 26.2325 4.92749 25.6975C3.83249 24.8525 3.23249 24.3175 2.80749 23.7325C2.44749 23.2325 1.25749 20.7675 1.18749 20.1925C1.46249 20.5125 2.04249 21.2675 2.33249 21.5775C3.20249 22.5075 4.11749 23.3875 5.06249 24.2325C6.81249 25.6825 8.20749 27.3675 8.81749 29.8575L8.82249 29.8625ZM12.4625 9.35247C12.6525 8.79247 13.6075 8.75747 13.6175 8.17247C13.6275 7.58747 13.9525 7.55247 14.2225 7.55247C14.4925 7.55247 14.7075 7.75747 14.9525 7.99247C15.2025 8.22747 15.3725 8.32247 16.1575 8.25747C16.9425 8.19247 16.8375 9.56747 16.2975 10.0575C15.9275 9.99747 15.5075 9.68747 15.1525 9.87747C15.1675 9.39247 15.3075 8.80747 14.7925 8.58747C14.2775 8.36247 13.7175 9.30247 13.4725 9.77747C13.2125 10.0175 12.7075 9.57747 12.3775 9.76247C12.4275 9.64247 12.4825 9.50247 12.4625 9.35747V9.35247ZM12.8875 13.9875C13.4125 13.4525 13.7075 13.2575 14.4975 12.4375C15.2875 11.6175 14.6775 9.66247 15.7975 10.2225C16.3075 10.5225 16.6425 10.4225 16.8925 10.2325C17.2625 9.95747 17.6325 9.50247 17.8475 9.84747C18.0625 10.1825 17.6825 11.0375 17.2725 11.5125C16.6775 12.2025 15.7375 12.7125 14.9575 13.0125C13.9475 13.3225 12.9875 14.0275 12.4425 14.8475C12.5175 14.5625 12.6375 14.2425 12.8875 13.9925V13.9875ZM12.9475 10.1225C13.9225 10.6125 14.0925 8.69247 14.6525 8.93247C14.9625 9.06247 14.8425 9.70747 14.6875 10.8625C14.5325 12.0275 14.3275 12.2225 13.9125 12.6175C12.9975 13.5025 12.5775 13.8075 12.3725 14.3075C12.2925 13.8925 12.3575 13.7625 11.8575 13.1975C11.5975 12.9025 11.3575 12.4725 11.4175 12.0675C11.4475 11.8575 11.7375 11.6025 11.8775 11.2375C12.0175 10.8725 11.8875 10.5125 12.1175 10.2625C12.3475 10.0125 12.6775 9.99747 12.9525 10.1175L12.9475 10.1225ZM12.1375 9.27747C12.0275 9.49247 12.0275 9.75247 11.9575 9.99247C11.7225 10.1925 11.5525 10.5175 11.6275 10.9325C11.4275 10.3475 10.8275 10.3375 10.3375 10.3575C10.1325 9.79747 9.82749 9.28747 10.7425 9.24747C11.6475 9.21247 11.7225 8.53247 11.9575 8.53247C12.1925 8.53247 12.1375 9.02247 12.1575 9.27247L12.1425 9.28247L12.1375 9.27747ZM10.6375 10.6625C11.1975 10.5425 11.5525 11.0675 11.3375 11.5425C11.0875 11.8375 11.0075 12.2575 11.1375 12.6425C11.2825 13.0925 11.6825 13.4875 11.8075 13.6225C12.0575 13.8725 12.0575 14.1375 12.1075 14.4325C11.5575 12.9875 9.46249 12.7775 8.98749 11.1175C8.88249 10.7975 8.86749 10.2925 9.28249 10.2325C9.76249 10.2425 10.1025 10.8175 10.6325 10.6625H10.6375ZM10.9325 3.16747C11.5375 2.69247 11.9425 3.58747 12.4225 2.85747C12.5925 2.67747 12.8625 2.14247 13.1125 2.31247C13.2575 2.41747 13.0775 3.27747 12.4925 4.17247C12.0725 4.81747 11.4075 5.48247 10.7025 5.88747C9.02249 6.85247 8.39249 7.10247 8.09249 8.27247C8.41249 6.03247 10.3325 4.88747 10.9325 3.16247V3.16747ZM11.2675 2.74747C11.1825 2.76247 11.0875 2.79247 11.0025 2.83247C11.0475 2.37747 11.3225 1.60747 10.7975 1.35747C10.2825 1.18747 9.97249 1.68247 9.70249 2.02247C9.12749 1.85247 8.50249 1.87747 8.05749 2.32247C8.05749 2.02747 8.04749 1.71747 7.95249 1.42747C8.44249 -0.027527 9.67749 1.34747 10.7275 0.652473C11.8575 0.107473 11.5475 2.01247 11.2725 2.74747H11.2675ZM7.99249 2.76247C8.84749 1.93747 9.03249 2.16747 9.62749 2.30747C10.2225 2.44747 10.2475 1.40247 10.6875 1.66247C11.1275 1.92747 10.6725 2.62747 10.6075 3.06747C10.2125 3.38747 10.2975 3.84247 9.92749 4.37747C9.55749 4.91247 8.39249 6.01247 8.04749 7.34747C7.99749 6.77747 7.86749 5.73747 7.79749 4.84247C7.72749 3.94747 7.13249 3.60247 7.98749 2.76747L7.99249 2.76247ZM7.70749 2.62747C7.45749 2.88747 7.33749 3.17747 7.21749 3.48747C6.93249 2.88247 6.51749 2.79747 6.26249 2.74747C6.00249 2.69747 5.70249 2.23247 5.46749 2.06747C5.36249 1.20747 5.85249 1.71247 6.21749 1.38747C6.41749 1.19747 6.47749 0.767473 6.78749 0.767473C7.09749 0.767473 7.59749 1.05247 7.64749 1.43247C7.58749 1.69747 7.66249 2.37247 7.70749 2.62747ZM6.25249 3.08247C6.76249 3.19247 7.13249 3.74747 7.42249 4.62247C7.71749 5.50247 7.85249 7.32747 7.60249 7.97247C7.43749 6.63747 6.73249 5.74247 5.90749 4.82747C5.34749 4.19747 4.12249 2.77747 4.77249 2.31247C5.42249 1.84747 5.72749 3.03747 6.25249 3.07747V3.08247ZM7.58249 18.0375C6.45249 16.6075 5.02249 15.7025 4.93749 14.0075C4.84249 12.3125 4.19749 11.9225 3.84249 11.1675C3.48749 10.4125 3.51749 9.40247 3.25749 8.60247C4.61749 9.90247 5.22249 12.4525 5.59249 13.7175C5.96249 14.9825 7.14249 16.5425 7.58249 18.0425V18.0375Z" fill="#312C2D"/>
  </g>
  <defs>
    <clipPath id="clip0_3_827">
      <rect width="17.405" height="47.475" fill="white" transform="translate(0.797485 0.262451)"/>
    </clipPath>
  </defs>
</svg>