<svg xmlns="http://www.w3.org/2000/svg" width="21" height="50" viewBox="0 0 21 50" fill="none">
  <g clip-path="url(#clip0_3_40)">
    <path d="M18.9875 7.115C19.0525 6.83 19.3125 6.54 19.5825 6.23C20.0275 5.725 20.4875 5.205 20.1525 4.66C19.8775 4.215 19.4175 3.985 18.7775 3.98H18.7575C18.0325 3.98 17.4675 4.305 17.1325 4.5C17.0725 4.535 17.0225 4.565 16.9775 4.59C16.7625 4.705 16.3575 4.76 16.0325 4.805C15.9425 4.815 15.8625 4.83 15.7925 4.84C15.9675 4.245 15.9875 3.615 15.8525 3.06C15.7175 2.52 15.4575 2.135 15.1375 2.005C14.7025 1.83 14.3125 1.855 13.9375 1.875C13.7625 1.885 13.5825 1.895 13.3925 1.885C12.9725 1.865 12.7125 1.65 12.3925 1.375C12.1175 1.145 11.8125 0.884999 11.3175 0.644999C10.7125 0.349999 9.72749 0.539999 9.02249 1.09C8.55749 1.455 7.82249 2.28 8.10249 3.74C4.55249 1.53 2.86749 1.945 2.17749 2.395C1.54249 2.805 1.33249 3.48 1.40249 3.965C1.44749 4.295 1.38249 4.59 1.31249 4.88C1.14749 5.585 1.00749 6.19 2.64749 6.915C1.98749 7.195 0.627494 8.21 0.732494 9.365C0.847494 10.615 1.35749 11.205 2.24749 11.13C2.61749 11.1 2.93249 11.015 3.23249 10.94C3.77249 10.8 4.23749 10.68 4.81249 10.91C4.52249 11.27 4.36749 11.48 4.49249 11.945C4.61749 12.39 5.39249 12.625 6.47249 12.545C6.90249 12.515 7.35749 12.63 7.83249 12.75C8.42749 12.9 9.04249 13.06 9.66249 12.935C9.69249 12.955 9.71749 12.98 9.75249 13C10.1475 13.305 10.5925 13.645 10.5275 14.145L10.5075 14.305C10.4125 15.035 10.1675 16.975 10.0925 18.365C10.0175 19.815 9.98249 24.75 10.0175 29.705C9.70249 28.03 9.37749 26.465 8.61249 25.37C7.88749 24.335 7.15249 21.085 6.82749 19.335C6.60249 18.12 6.20249 17.015 5.90749 16.46C5.61249 15.91 5.09749 15.325 4.91749 15.27C4.89249 15.26 4.87249 15.265 4.85749 15.27C4.74249 15.34 4.83249 15.725 5.04749 16.535C5.21749 17.155 5.22749 17.695 5.10249 18.455C4.89749 19.675 5.25749 20.805 5.47749 21.48C5.52249 21.61 5.55749 21.725 5.58249 21.82C5.64749 22.055 5.65749 22.325 5.66249 22.605C5.67249 23.03 5.68749 23.515 5.89249 24.045C6.03749 24.425 6.31249 24.815 6.62749 25.26C7.04249 25.85 7.55749 26.58 7.94749 27.55C8.06249 27.835 8.19249 28.135 8.33249 28.455C9.01249 30.015 9.94249 32.15 9.89249 34.885C9.83249 38.315 9.38749 42.13 8.97749 45.44C8.91749 45.915 8.82249 46.48 8.72749 47.03C8.47249 48.51 8.32749 49.425 8.57749 49.485C8.58749 49.485 8.59749 49.485 8.60749 49.485C8.63249 49.485 8.65749 49.475 8.68249 49.46C8.98749 49.255 9.21249 47.7 9.50249 45.525C9.77749 43.425 10.5175 36.02 10.4375 30.745C10.5725 30.145 10.9225 29.75 11.2975 29.335C11.5875 29.01 11.8875 28.675 12.0875 28.23C12.3175 27.72 12.4225 27.345 12.5125 27.015C12.6025 26.685 12.6825 26.4 12.8625 26.055C13.0225 25.75 13.2225 25.505 13.4325 25.245C13.7275 24.885 14.0325 24.515 14.2225 23.965C14.2675 23.84 14.3125 23.705 14.3575 23.57C14.6425 22.715 14.9625 21.745 15.5075 21.41C15.6125 21.345 15.7175 21.285 15.8175 21.22C16.3275 20.91 16.8075 20.62 17.1075 20.285C17.7525 19.56 18.0975 18.505 18.3325 17.67C18.3925 17.455 18.4625 17.26 18.5225 17.09C18.6325 16.785 18.7025 16.58 18.6425 16.475C18.6225 16.44 18.5925 16.42 18.5475 16.415C18.3525 16.38 18.1925 16.57 17.9225 16.885C17.8275 16.995 17.7225 17.125 17.5925 17.265C16.6475 18.295 15.9525 19 15.4025 19.48C15.3275 19.545 15.2425 19.615 15.1475 19.695C13.9225 20.73 11.1025 23.11 10.4575 28.255C10.4575 26.915 10.4575 25.32 10.4475 23.775C10.4375 21.34 10.4275 19.045 10.4625 18.39C10.4625 18.325 10.4675 18.255 10.4725 18.17C10.5325 16.815 10.7025 13.225 12.1375 12.69C12.4575 12.77 12.8625 12.94 13.2875 13.125C14.5425 13.66 16.1075 14.325 16.6725 13.095C17.4975 13.14 17.8125 12.53 18.0675 12.04C18.1975 11.79 18.3075 11.575 18.4625 11.49C18.7275 11.34 19.1675 11.095 19.2525 10.64C19.3175 10.29 19.1525 9.87 18.7675 9.4C18.8925 9.23 18.8925 8.8 18.8975 8.31C18.8975 7.9 18.8975 7.44 18.9775 7.095L18.9875 7.105V7.115ZM13.6175 22.75C13.0975 23.07 12.5125 23.425 12.1125 23.84C12.9225 22.19 14.2825 20.99 15.5925 19.825C16.4325 19.08 17.3025 18.31 18.0275 17.425C17.7575 18.37 17.4325 19.315 16.9175 19.92C16.5675 20.33 16.1725 20.58 15.7875 20.825C15.6075 20.935 15.4275 21.05 15.2525 21.18C15.0025 21.365 14.8325 21.59 14.6675 21.81C14.4675 22.075 14.2625 22.345 13.9075 22.57C13.8125 22.63 13.7125 22.69 13.6125 22.75H13.6175ZM11.1475 28.895C10.9475 29.105 10.7475 29.325 10.5625 29.69C11.0875 25.085 12.1025 24.1 13.0925 23.49C13.3325 23.345 13.5125 23.235 13.6575 23.15C13.9775 22.96 14.1175 22.88 14.2875 22.715C14.2175 22.89 14.1625 23.065 14.1075 23.235C13.9675 23.66 13.8225 24.1 13.5325 24.515C13.4125 24.69 13.2775 24.855 13.1375 25.03C12.7725 25.485 12.3925 25.95 12.2475 26.56C12.0625 27.335 11.9275 27.845 11.5575 28.395C11.4225 28.595 11.2825 28.745 11.1475 28.895ZM10.1025 12.475C10.0925 12.33 10.1025 12.145 10.1175 11.965C10.1375 11.67 10.1575 11.42 10.0725 11.33C10.0525 11.305 10.0225 11.295 9.99249 11.295C9.96249 11.295 9.93749 11.31 9.91249 11.33C9.74749 11.51 9.78749 12.385 9.79749 12.545C9.19249 12.72 8.38749 12.53 7.73749 12.375C7.50749 12.32 7.29249 12.27 7.11249 12.24C6.91749 12.21 6.65749 12.2 6.38249 12.185C5.66749 12.155 4.86249 12.125 4.82249 11.74C4.80249 11.565 4.94749 11.215 5.30249 10.83C6.79749 9.21 9.69749 9.09 10.8825 9.115C11.5225 9.615 11.5075 10.455 11.4975 10.955C11.4975 11.195 11.4875 11.35 11.5525 11.41C11.5725 11.43 11.5925 11.435 11.6125 11.435C11.6825 11.435 11.7325 11.375 11.7725 11.245C11.9275 10.77 11.8475 9.61 11.2775 9.11C12.6425 9.26 13.4675 9.76 14.3875 10.4C15.4125 11.11 16.2025 11.97 16.3075 12.5C16.3675 12.82 16.3425 13.045 16.2175 13.195C16.0825 13.365 15.8275 13.445 15.4425 13.445C14.9425 13.445 14.1675 13.12 13.4225 12.805C12.8475 12.565 12.3075 12.335 11.9325 12.275C11.2025 12.155 10.6625 12.31 10.2675 12.42C10.2125 12.435 10.1575 12.45 10.1075 12.465L10.1025 12.475ZM1.76749 3.925C1.73249 3.37 1.96749 2.92 2.43249 2.655C2.95749 2.36 3.71749 2.315 4.63749 2.54C5.70249 2.8 6.90249 3.385 8.20749 4.29C8.38749 5.14 8.59749 5.96 8.82749 6.73C7.98749 5.57 6.93249 4.985 6.55749 4.985H6.54249C6.48749 4.985 6.44749 5.005 6.43249 5.04C6.39249 5.115 6.51249 5.185 6.77749 5.345C7.43249 5.73 8.78749 6.53 9.37749 8.375C9.36749 8.4 9.36249 8.42 9.35749 8.445C7.14249 7.205 5.94749 6.625 4.47749 6.625C4.09249 6.625 3.69249 6.665 3.25249 6.74C1.39749 6.02 1.45749 5.77 1.63249 5.105C1.70749 4.81 1.80249 4.445 1.76749 3.925ZM12.1275 3.655C12.1175 3.735 12.1275 3.79 12.1625 3.81C12.1975 3.835 12.2325 3.84 12.2625 3.83C12.3425 3.805 12.3975 3.685 12.5225 3.41C12.5825 3.275 12.6575 3.11 12.7625 2.905C13.1025 2.225 14.0675 1.925 14.9225 2.245C15.1625 2.335 15.3525 2.545 15.4725 2.855C15.7075 3.455 15.6625 4.375 15.3675 4.965C13.7075 5.44 12.3375 6.755 11.4475 7.715C11.2525 7.555 11.0625 7.465 10.8325 7.42C11.0375 6.615 11.3075 6.2 11.4675 5.95C11.5575 5.81 11.6075 5.73 11.5925 5.665C11.5825 5.635 11.5675 5.61 11.5325 5.585C11.5125 5.575 11.4825 5.565 11.4375 5.585C11.1575 5.725 10.6025 7.145 10.5525 7.41C10.3675 7.445 9.85749 7.56 9.60249 7.9C9.50749 7.54 9.36749 7.115 9.21749 6.665C8.59749 4.81 7.82749 2.5 9.01249 1.48C9.52749 1.04 10.0875 0.804999 10.6125 0.804999C10.8025 0.804999 10.9825 0.834999 11.1625 0.894999C11.4425 0.989999 11.7375 1.225 12.0475 1.475C12.3725 1.735 12.7075 2.01 13.0925 2.18C12.5925 2.42 12.1775 3.32 12.1375 3.645L12.1275 3.655ZM18.5975 8.155C18.6175 8.53 18.6325 8.86 18.4725 9.215C17.6125 8.7 16.6325 8.55 15.6175 8.55C14.9275 8.55 14.2175 8.62 13.5175 8.685C13.0025 8.735 12.5175 8.785 12.0475 8.8C12.0875 8.615 12.0375 8.43 11.9025 8.24C12.4425 7.9 12.9025 7.775 13.1825 7.695C13.3725 7.645 13.4725 7.615 13.5025 7.555C13.5125 7.535 13.5125 7.51 13.5025 7.485C13.4925 7.455 13.4625 7.435 13.4125 7.425C13.1325 7.37 12.0925 7.71 11.7575 8.04C11.7325 8.01 11.7075 7.98 11.6825 7.95C13.7125 5.54 15.2675 5.28 16.2975 5.11C16.7025 5.04 17.0225 4.99 17.2525 4.825C18.0425 4.26 19.2825 4.105 19.7625 4.745C20.0325 5.1 19.7075 5.49 19.3325 5.94C19.0575 6.275 18.7675 6.62 18.6675 7.015C18.5525 7.45 18.5725 7.825 18.5875 8.155H18.5975ZM10.6375 7.75C10.6375 7.75 10.6675 7.75 10.6825 7.75C11.0375 7.75 11.3925 8.06 11.5725 8.385C11.6725 8.57 11.7025 8.735 11.6525 8.82C11.2725 8.83 10.8625 8.84 10.4675 8.845C10.1975 8.85 9.93249 8.855 9.69249 8.86C9.67249 8.23 10.0425 7.8 10.6375 7.75ZM4.26249 6.92C5.73749 6.92 7.05749 7.41 9.29249 8.775C9.29249 8.81 9.29249 8.845 9.29249 8.88C8.18749 8.285 6.44749 8.16 6.03249 8.16C5.83749 8.16 5.68749 8.22 5.68749 8.305C5.68749 8.345 5.72249 8.415 5.96749 8.425C6.35749 8.44 8.07749 8.625 8.85249 8.985C7.81249 9.115 6.03749 9.495 5.08249 10.615C4.28749 10.27 3.44749 10.495 2.77249 10.675C2.61249 10.72 2.46749 10.755 2.32749 10.79C2.04249 10.85 1.80249 10.81 1.60249 10.66C1.30749 10.435 1.12749 9.965 1.08749 9.3C1.06249 8.9 1.25749 8.46 1.63249 8.055C2.27749 7.37 3.29249 6.925 4.22249 6.92H4.25749H4.26249ZM14.5525 9.685C14.9175 9.81 15.1325 9.885 15.1925 9.73C15.2025 9.71 15.2025 9.675 15.1775 9.635C14.9975 9.375 13.6225 9.08 12.6525 9.02C14.2275 8.835 17.2375 8.62 18.3575 9.51C18.5775 9.685 18.9425 10.085 18.9175 10.475C18.9025 10.705 18.7525 10.905 18.4775 11.065C18.0575 11.315 17.8525 11.69 17.6725 12.02C17.4375 12.45 17.2525 12.795 16.7075 12.755C16.6075 11.37 14.5375 10.065 13.2225 9.37C13.7525 9.41 14.2075 9.565 14.5475 9.68L14.5525 9.685ZM10.4425 12.76C10.8625 12.65 11.2925 12.535 11.7175 12.605C11.4425 12.795 11.1325 13.015 10.8525 13.48C10.7425 13.36 10.4225 13.01 10.1275 12.84C10.2325 12.815 10.3325 12.785 10.4375 12.76H10.4425ZM5.77749 21.12C5.57249 20.495 5.33749 19.78 5.45749 18.925C5.64749 17.525 5.51249 16.965 5.35749 16.32C5.35249 16.295 5.34749 16.275 5.34249 16.25C6.34749 17.9 6.47249 19.63 6.61249 21.455C6.71249 22.78 6.81249 24.15 7.26249 25.56C6.51249 24.505 5.88749 23.48 6.03249 22.54C6.10249 22.095 5.95249 21.64 5.78249 21.115L5.77749 21.12ZM10.0375 31.96C9.72249 30.945 9.32749 29.94 8.91249 28.885C8.00249 26.565 7.06249 24.17 6.97749 21.59C7.28249 23.295 7.77249 24.71 8.43749 25.805C9.21249 27.08 9.72749 29.78 10.0375 31.96Z" fill="#312C2D"/>
    <path d="M3.6125 8.62001C3.7475 8.62001 3.9525 8.58501 4.2225 8.54001C4.2775 8.53001 4.3275 8.52001 4.3825 8.51501C4.6225 8.47501 4.85751 8.46001 5.00751 8.45501C5.15751 8.45001 5.27751 8.40001 5.31251 8.34001C5.3275 8.31501 5.3225 8.28501 5.31251 8.26501C5.27751 8.21001 5.15751 8.18501 4.98251 8.20001H4.92251C4.01251 8.28001 3.4425 8.36501 3.4425 8.54001C3.4425 8.56001 3.4525 8.58001 3.4675 8.59501C3.4925 8.62001 3.54751 8.63001 3.61751 8.63001L3.6125 8.62001Z" fill="#312C2D"/>
    <path d="M16.1575 6.91501C15.8525 6.91501 14.1675 7.24001 13.9825 7.30001C13.8975 7.33001 13.7375 7.41501 13.7575 7.49501C13.7675 7.53001 13.8025 7.55001 13.8725 7.55001C13.9025 7.55001 13.9425 7.55001 13.9875 7.54001L14.0575 7.53001C14.5325 7.46001 15.9675 7.23501 16.2225 7.19001C16.3625 7.16501 16.4375 7.11001 16.4325 7.04001C16.4225 6.97001 16.3175 6.92001 16.1575 6.92001V6.91501Z" fill="#312C2D"/>
  </g>
  <defs>
    <clipPath id="clip0_3_40">
      <rect width="19.545" height="48.99" fill="white" transform="translate(0.727509 0.505005)"/>
    </clipPath>
  </defs>
</svg>