<svg xmlns="http://www.w3.org/2000/svg" width="15" height="14" viewBox="0 0 15 14" fill="none">
  <rect x="0.666687" width="14" height="14" rx="3" fill="#F7E200"/>
  <path d="M3.07777 4.6176C3.07777 4.43577 3.20533 4.21164 3.36149 4.11973L7.34435 1.77059C7.50018 1.67868 7.75562 1.67868 7.91145 1.77059L11.8943 4.11973C12.0501 4.21164 12.178 4.43577 12.178 4.6176V9.32382C12.178 9.50565 12.0505 9.72978 11.8943 9.82169L7.91145 12.1708C7.75562 12.2627 7.50018 12.2627 7.34435 12.1708L3.36149 9.82169C3.20566 9.72978 3.07777 9.50565 3.07777 9.32382V4.6176Z" fill="#1977D1"/>
  <path d="M8.21883 6.76056V7.74306C8.21883 7.74306 8.24414 7.91894 8.45816 7.74802L10.5661 6.38402C10.5661 6.38402 10.6431 6.3546 10.6431 6.18865C10.6431 6.18865 10.6473 6.0941 10.573 6.01906C10.4984 5.94401 8.42134 4.63092 8.42134 4.63092C8.42134 4.63092 8.31778 4.6015 8.31778 4.75489V5.80186H6.26702C6.26702 5.80186 5.78638 5.77475 5.78638 6.22468V8.36886L6.39359 8.83168C6.39359 8.83168 6.64114 9.01747 6.64114 8.79598V6.92552C6.64114 6.92552 6.66251 6.76089 6.93143 6.76089H8.31778" fill="#F7E200"/>
</svg>