<svg width="14" height="12" viewBox="0 0 14 12" fill="none" xmlns="http://www.w3.org/2000/svg">
<g id="_&#235;&#160;&#136;&#236;&#157;&#180;&#236;&#150;&#180;_1" clip-path="url(#clip0_20_1021)">
<path id="Vector" d="M7.25 0.199219C3.762 0.199219 0.936005 2.43322 0.936005 5.19122C0.936005 6.98522 2.134 8.55922 3.932 9.43922C3.8 9.93122 3.454 11.2252 3.384 11.5012C3.298 11.8452 3.51 11.8392 3.648 11.7472C3.756 11.6752 5.378 10.5712 6.078 10.0952C6.458 10.1512 6.85 10.1812 7.25 10.1812C10.738 10.1812 13.564 7.94722 13.564 5.18922C13.564 2.43122 10.738 0.199219 7.25 0.199219Z" fill="#D6CACA"/>
<g id="Group">
<g id="Group_2">
<path id="Vector_2" d="M2.84599 4.27146H3.49599C3.49599 4.27146 3.49999 6.05746 3.49599 6.47346C3.49599 6.77746 4.17199 6.78146 4.17199 6.47746V4.29546C4.17199 4.29546 4.39199 4.29546 4.82199 4.29546C5.22599 4.29546 5.22599 3.65946 4.82199 3.65946C4.36599 3.65946 2.84599 3.64746 2.84599 3.64746C2.46399 3.64746 2.46599 4.27146 2.84599 4.27146Z" fill="white"/>
<g id="Clip path group">
<mask id="mask0_20_1021" style="mask-type:luminance" maskUnits="userSpaceOnUse" x="2" y="3" width="4" height="4">
<g id="clippath-1">
<path id="Vector_3" d="M2.84599 4.27146H3.49599C3.49599 4.27146 3.49999 6.05746 3.49599 6.47346C3.49599 6.77746 4.17199 6.78146 4.17199 6.47746V4.29546C4.17199 4.29546 4.39199 4.29546 4.82199 4.29546C5.22599 4.29546 5.22599 3.65946 4.82199 3.65946C4.36599 3.65946 2.84599 3.64746 2.84599 3.64746C2.46399 3.64746 2.46599 4.27146 2.84599 4.27146Z" fill="white"/>
</g>
</mask>
<g mask="url(#mask0_20_1021)">
<g id="Group_3">
<path id="Vector_4" d="M5.22401 3.64941H2.46201V6.78141H5.22401V3.64941Z" fill="white"/>
</g>
</g>
</g>
</g>
<g id="Group_4">
<path id="Vector_5" d="M5.95598 4.38762L6.31798 5.52162H5.56398L5.95598 4.38762ZM5.54998 3.85762C5.38998 4.20962 4.81198 5.87362 4.61998 6.31362C4.48198 6.63162 5.07998 6.89162 5.21798 6.57362L5.34798 6.11962H6.53798C6.53798 6.11962 6.49798 6.13762 6.65398 6.55562C6.78198 6.89362 7.39998 6.65962 7.27198 6.32162C7.08998 5.83962 6.45798 4.10362 6.34198 3.85762C6.28798 3.74362 6.09798 3.66162 5.91398 3.66162C5.76198 3.66162 5.61198 3.71762 5.54998 3.85762Z" fill="white"/>
<g id="Clip path group_2">
<mask id="mask1_20_1021" style="mask-type:luminance" maskUnits="userSpaceOnUse" x="4" y="3" width="4" height="4">
<g id="clippath-4">
<path id="Vector_6" d="M5.95598 4.38762L6.31798 5.52162H5.56398L5.95598 4.38762ZM5.54998 3.85762C5.38998 4.20962 4.81198 5.87362 4.61998 6.31362C4.48198 6.63162 5.07998 6.89162 5.21798 6.57362L5.34798 6.11962H6.53798C6.53798 6.11962 6.49798 6.13762 6.65398 6.55562C6.78198 6.89362 7.39998 6.65962 7.27198 6.32162C7.08998 5.83962 6.45798 4.10362 6.34198 3.85762C6.28798 3.74362 6.09798 3.66162 5.91398 3.66162C5.76198 3.66162 5.61198 3.71762 5.54998 3.85762Z" fill="white"/>
</g>
</mask>
<g mask="url(#mask1_20_1021)">
<g id="Group_5">
<path id="Vector_7" d="M7.39999 3.66162H4.48199V6.89162H7.39999V3.66162Z" fill="white"/>
</g>
</g>
</g>
</g>
<g id="Group_6">
<path id="Vector_8" d="M7.5 3.96157C7.5 4.52757 7.504 6.34957 7.504 6.34957C7.504 6.34957 7.452 6.71157 7.762 6.71157C8.072 6.71157 8.762 6.70757 9.066 6.70757C9.37 6.70757 9.37 6.05757 9.066 6.05757C8.762 6.05757 8.204 6.05357 8.204 6.05357C8.204 6.05357 8.206 4.36757 8.204 3.95957C8.204 3.76157 8.028 3.66357 7.852 3.66357C7.676 3.66357 7.5 3.76357 7.5 3.96157Z" fill="white"/>
<g id="Clip path group_3">
<mask id="mask2_20_1021" style="mask-type:luminance" maskUnits="userSpaceOnUse" x="7" y="3" width="3" height="4">
<g id="clippath-7">
<path id="Vector_9" d="M7.5 3.96157C7.5 4.52757 7.504 6.34957 7.504 6.34957C7.504 6.34957 7.452 6.71157 7.762 6.71157C8.072 6.71157 8.762 6.70757 9.066 6.70757C9.37 6.70757 9.37 6.05757 9.066 6.05757C8.762 6.05757 8.204 6.05357 8.204 6.05357C8.204 6.05357 8.206 4.36757 8.204 3.95957C8.204 3.76157 8.028 3.66357 7.852 3.66357C7.676 3.66357 7.5 3.76357 7.5 3.96157Z" fill="white"/>
</g>
</mask>
<g mask="url(#mask2_20_1021)">
<g id="Group_7">
<path id="Vector_10" d="M9.372 3.66357H7.452V6.71157H9.372V3.66357Z" fill="white"/>
</g>
</g>
</g>
</g>
<g id="Group_8">
<path id="Vector_11" d="M9.45398 3.87153C9.45998 4.11953 9.44598 6.36153 9.44598 6.52753C9.44598 6.78953 10.114 6.78953 10.114 6.52753C10.114 6.22353 10.114 5.64553 10.114 5.64553L10.31 5.48753L11.166 6.65753C11.34 6.88553 11.884 6.47353 11.712 6.24553L10.802 5.04753C10.802 5.04753 11.42 4.37953 11.664 4.13753C11.806 3.99553 11.366 3.55353 11.224 3.69553C11.086 3.83153 10.118 4.79953 10.118 4.79953C10.118 4.79953 10.126 4.19153 10.118 3.85553C10.114 3.72753 9.95798 3.66553 9.79798 3.66553C9.62598 3.66553 9.45198 3.73553 9.45398 3.87353" fill="white"/>
<g id="Clip path group_4">
<mask id="mask3_20_1021" style="mask-type:luminance" maskUnits="userSpaceOnUse" x="9" y="3" width="3" height="4">
<g id="clippath-10">
<path id="Vector_12" d="M9.45398 3.87153C9.45998 4.11953 9.44598 6.36153 9.44598 6.52753C9.44598 6.78953 10.114 6.78953 10.114 6.52753C10.114 6.22353 10.114 5.64553 10.114 5.64553L10.31 5.48753L11.166 6.65753C11.34 6.88553 11.884 6.47353 11.712 6.24553L10.802 5.04753C10.802 5.04753 11.42 4.37953 11.664 4.13753C11.806 3.99553 11.366 3.55353 11.224 3.69553C11.086 3.83153 10.118 4.79953 10.118 4.79953C10.118 4.79953 10.126 4.19153 10.118 3.85553C10.114 3.72753 9.95798 3.66553 9.79798 3.66553C9.62598 3.66553 9.45198 3.73553 9.45398 3.87353" fill="white"/>
</g>
</mask>
<g mask="url(#mask3_20_1021)">
<g id="Group_9">
<path id="Vector_13" d="M11.884 3.55176H9.44598V6.88576H11.884V3.55176Z" fill="white"/>
</g>
</g>
</g>
</g>
</g>
</g>
<defs>
<clipPath id="clip0_20_1021">
<rect width="12.628" height="11.602" fill="white" transform="translate(0.936005 0.199219)"/>
</clipPath>
</defs>
</svg>
